<svg xmlns="http://www.w3.org/2000/svg" xml:space="preserve" width="34" height="34"><path fill="#231F20" d="M8.533 30.774c.675 2.87.568 3.189 1.524 3.226.957.035 2.695-3.97 2.198-9.853 0 0 5.468-.476 10.422-3.194.918.993.169 3.139.591 3.398.479.299 1.143 1.224 3.798-3.136 1.453-2.391 1.805-4.437 1.827-5.804 1.037-1.408 3.313-4.846 2.857-4.703-1.002.313-2.489.019-2.652-.528-.233-.786 2.317-.347 3.998-2.766.948-1.478 1.317-5.898.282-6.934-.957-.956-10.811-1.099-17.083 5.527l-.009.011c-.918.2-2.952.898-4.953 3.32-2.693 3.262-1.807 3.51-1.453 3.793.258.206 1.319-.571 2.249-.594-1.975 4.812-1.859 9.061-1.859 9.061S1.056 23.157.135 24.362c-.92 1.205 3.154 2.163 4.324 2.127 1.168-.038 3.4 1.416 4.074 4.285zM24.872 5.583a1.2 1.2 0 0 1 0-1.7 1.2 1.2 0 0 1 1.701 0 1.2 1.2 0 0 1 0 1.7 1.2 1.2 0 0 1-1.701 0zm-4.678-.318s.904 5.793 7.92 7.919c0 0-10.074.61-7.92-7.919z"/></svg>